<svg xmlns="http://www.w3.org/2000/svg" xmlns:xlink="http://www.w3.org/1999/xlink" xmlns:lucid="lucid" width="997.17" height="525.87"><g transform="translate(-580 -460)" lucid:page-tab-id="0_0"><path d="M0 0h1760v1360H0z" fill="#fff"/><path d="M600 806a6 6 0 0 1 6-6h188a6 6 0 0 1 6 6v108a6 6 0 0 1-6 6H606a6 6 0 0 1-6-6z" stroke="#3a414a" fill="#fff"/><use xlink:href="#a" transform="matrix(1,0,0,1,612,812) translate(76.91975308641975 38.77777777777778)"/><use xlink:href="#b" transform="matrix(1,0,0,1,612,812) translate(31.950617283950614 65.44444444444446)"/><path d="M1420 540h120v120h-120V540z" stroke="#000" stroke-opacity="0" fill="url(#c)"/><path d="M1513.76 570.94v1l-3.24 24.26.16.17c5.68 3.05 8.45 5.53 8.84 7.76.24 1.07-.08 2.06-.7 2.8-.8 1-2.06 1.4-3.88 1.4-1.5 0-3.47-.32-5.84-.9l-3.16 24.52c-1.34 8.42-20.53 9.33-28.74 9.33-8.2 0-27.4-.9-28.74-9.33l-7.82-60.02v-1c0-5.77 15.63-12.2 36.56-12.2 20.92 0 36.56 6.43 36.56 12.2zm-7.82 31.62l3.24-25.43c-6.56 3.96-19.35 5.95-31.98 5.95-12.63 0-25.43-2-31.98-5.95l6.95 54.33c.47 2.97 9.24 6.1 25.03 6.1 15.8 0 24.56-3.13 25.03-6.2l3.24-25c-9.32-2.98-21.48-8.6-25.98-10.65-.64.42-1.43.75-2.3.75-2.13 0-3.87-1.82-3.87-3.96 0-2.16 1.74-3.98 3.87-3.98s3.8 1.74 3.95 3.8c4.34 1.98 15.87 7.27 24.8 10.24zm-28.74-23.2c19.58 0 32.3-4.8 32.85-8.26v-.16c-.7-2.15-11.6-8.5-32.85-8.5-21.32 0-32.14 6.43-32.85 8.5v.33c.8 3.38 13.42 8.1 32.85 8.1zm32.37 24.27c3.87 1.08 5.53 1 6.16.9-.4-.57-1.66-1.97-5.76-4.28z" stroke="#000" stroke-opacity="0" fill="#fff"/><use xlink:href="#d" transform="matrix(1,0,0,1,1390,669) translate(40.778086419753095 17.955555555555552)"/><use xlink:href="#e" transform="matrix(1,0,0,1,1390,669) translate(50.784567901234574 44.888888888888886)"/><path d="M1515.52 808.36c12.12 0 24.48 3.84 24.48 11.28v48.48c0 7.32-12.36 11.28-24.48 11.28-12.12 0-24.48-3.96-24.48-11.28v-48.48c0-7.44 12.36-11.28 24.48-11.28zm-79.8 66.12h53.64V880h-53.64c-8.64 0-15.72-7.08-15.72-15.72v-88.56c0-8.64 7.08-15.72 15.72-15.72h88.32c8.64 0 15.6 7.08 15.6 15.72v34.68h-5.4v-34.68c0-5.64-4.56-10.2-10.2-10.2h-88.32c-5.64 0-10.32 4.56-10.32 10.2v88.56c0 5.64 4.68 10.2 10.32 10.2zm79.8-32.16c12.6 0 19.08-4.08 19.08-5.76v-9.6c-4.8 2.52-11.88 3.84-19.08 3.84-7.08 0-14.28-1.32-18.96-3.84v9.6c0 1.68 6.48 5.76 18.96 5.76zm0 16.68c12.6 0 19.08-4.08 19.08-5.76v-9.36c-4.8 2.52-11.88 3.96-19.08 3.96-7.08 0-14.28-1.44-18.96-3.96v9.36c0 1.68 6.48 5.76 18.96 5.76zm0 14.88c12.6 0 19.08-4.08 19.08-5.76v-7.56c-4.8 2.52-11.88 3.84-19.08 3.84-7.08 0-14.28-1.32-18.96-3.84v7.56c0 1.68 6.48 5.76 18.96 5.76zm0-60c-12.48 0-18.96 3.96-18.96 5.76 0 1.68 6.48 5.76 18.96 5.76 12.6 0 19.08-4.08 19.08-5.76 0-1.8-6.48-5.76-19.08-5.76zm3.24-24.12c-.72 1.44-1.8 2.28-3.24 2.76.6.48 1.32.84 2.04 1.2.6.24 1.44.36 2.16.48v2.04c-1.2-.12-2.28-.48-3.36-1.08-1.08-.6-2.04-1.44-3-2.4-1.2 0-2.28-.48-3.24-1.08-.84-.72-1.56-1.68-1.92-3-.48-1.32-.72-2.76-.72-4.56 0-2.64.48-4.8 1.68-6.24 1.08-1.56 2.52-2.28 4.56-2.28 1.92 0 3.48.72 4.56 2.28 1.08 1.44 1.68 3.6 1.68 6.24 0 2.28-.36 4.2-1.2 5.64zm-45.96 5.04c.36-.6.6-1.56.6-3v-.84c-.84.84-1.8 1.2-2.76 1.2-.72 0-1.44-.24-2.04-.72-.6-.48-1.08-1.2-1.32-2.16-.36-.84-.48-1.92-.48-3.12 0-1.92.36-3.36 1.08-4.44.72-1.2 1.68-1.68 2.88-1.68.96 0 1.92.36 2.88 1.32l.12-1.08h1.92v11.4c0 3.96-1.68 6-4.8 6-1.2 0-2.28-.36-3.36-.96v-1.68c1.2.48 2.28.72 3.12.72 1.08 0 1.8-.36 2.16-.96zm-37.32-18.24c.6.36 1.2.96 1.56 1.8.36.72.48 1.56.48 2.64 0 1.44-.36 2.64-1.2 3.6s-1.92 1.44-3.24 1.44h-2.52v6.36h-2.28v-16.56h4.8c.96 0 1.68.24 2.4.72zm8.52 3.48c1.56 0 2.76.48 3.48 1.56.84 1.2 1.2 2.76 1.2 4.8s-.36 3.6-1.2 4.68c-.72 1.08-1.92 1.68-3.48 1.68-1.44 0-2.64-.6-3.36-1.68-.84-1.08-1.32-2.64-1.32-4.68 0-2.04.48-3.6 1.32-4.8.72-1.08 1.92-1.56 3.36-1.56zm69.72 10.8c1.32 0 2.28-.6 2.88-1.68.6-1.2.96-2.76.96-5.04 0-2.16-.36-3.84-.96-4.92s-1.56-1.68-2.88-1.68c-1.32 0-2.28.6-2.88 1.68-.72 1.08-.96 2.76-.96 4.92 0 2.28.24 3.84.96 5.04.6 1.08 1.56 1.68 2.88 1.68zm-19.92-.72v1.68c-.96.6-2.04.96-3.36.96-1.56 0-2.76-.6-3.6-1.56-.84-1.08-1.2-2.64-1.2-4.8 0-2.04.36-3.72 1.2-4.8.84-1.08 1.92-1.56 3.36-1.56 1.32 0 2.28.36 2.88 1.2.6.84.96 2.04.96 3.6 0 .72 0 1.44-.24 2.04h-6c0 1.44.24 2.4.72 3.12.48.6 1.2.96 2.28.96.96 0 1.92-.24 3-.84zm8.4 0c.48-.48.72-1.2.72-2.04 0-1.08-.72-2.04-1.92-2.64l-1.68-.84c-1.08-.6-1.92-1.2-2.4-1.92s-.72-1.56-.72-2.52c0-1.44.48-2.52 1.32-3.36.84-.84 1.92-1.2 3.36-1.2.96 0 2.16.24 3.48.84v1.8c-1.08-.48-2.16-.72-3.36-.72-.72 0-1.32.24-1.8.72-.36.36-.6.96-.6 1.8 0 .48.12 1.08.36 1.44.36.48.84.84 1.56 1.2l1.68.84c1.08.48 1.8 1.2 2.28 1.8.48.72.72 1.68.72 2.64 0 1.44-.48 2.64-1.32 3.48-.96.84-2.16 1.32-3.6 1.32-.72 0-1.44-.12-2.16-.24-.72-.12-1.2-.36-1.8-.72V790c1.32.48 2.64.84 3.84.84.84 0 1.56-.24 2.04-.72zm23.28-14.28v14.64h6v1.92h-8.4v-16.56zm-65.4 13.44v-7.2h-1.68v-1.44l1.8-.24.36-3.48h1.8v3.36h2.76v1.8h-2.76v6.96c0 .6.12 1.08.24 1.32.24.24.6.36 1.08.36.48 0 .96-.12 1.44-.24v1.68c-.6.24-1.32.36-2.16.36-.96 0-1.68-.24-2.16-.72-.48-.6-.72-1.44-.72-2.52zm-4.92 1.2c.24-.24.48-.72.48-1.32 0-.72-.48-1.2-1.32-1.68l-1.56-.72c-1.44-.72-2.16-1.8-2.16-3.36 0-.96.36-1.8.96-2.4.72-.72 1.56-.96 2.64-.96.96 0 1.92.24 2.88.72v1.68c-.84-.48-1.8-.72-2.76-.72-.48 0-.96.24-1.2.48-.36.24-.48.72-.48 1.2 0 .36.12.72.24.96.24.24.6.6 1.08.84l1.56.72c.72.36 1.2.72 1.56 1.32.36.48.48 1.08.48 1.8 0 1.08-.24 2.04-.96 2.64-.72.72-1.56 1.08-2.76 1.08-1.2 0-2.28-.36-3.36-.96v-1.56c1.32.48 2.4.72 3.24.72.6 0 1.08-.12 1.44-.48zm-9.24-.72c.36-.72.6-1.8.6-3.36 0-1.56-.24-2.76-.6-3.48-.48-.72-1.08-1.08-1.92-1.08-.84 0-1.44.36-1.8 1.08-.36.72-.6 1.92-.6 3.48s.24 2.64.6 3.36c.36.84.96 1.2 1.8 1.2.84 0 1.44-.36 1.92-1.2zm36.36-9.12c.36-.24.96-.36 1.56-.36h.72v2.04h-1.08c-.84 0-1.68.24-2.4.84v9.24h-2.28v-12.12h1.92l.12 1.44c.48-.48.96-.84 1.44-1.08zm-10.92 9.72c.6 0 1.32-.36 2.04-.96v-6.72c-.72-.6-1.44-.84-2.16-.84-.72 0-1.32.36-1.68 1.08-.36.6-.6 1.68-.6 3.24 0 1.44.24 2.4.6 3.12.36.72.96 1.08 1.8 1.08zm-36.72-7.08c.36-.6.6-1.32.6-2.28 0-1.08-.24-1.92-.6-2.4-.48-.6-1.08-.84-1.8-.84h-2.28v6.36h2.28c.72 0 1.32-.24 1.8-.84zm53.76-.6c-.36.6-.6 1.44-.6 2.64h4.2v-.24c.12-.12.12-.24.12-.36 0-1.08-.24-1.8-.48-2.28-.36-.48-.84-.72-1.44-.72-.84 0-1.32.24-1.8.96z" stroke="#000" stroke-opacity="0" fill="#2e27ad"/><path d="M1435.32 763.1h89.77c8.4 0 12.64 4.23 12.64 12.66v88.7c0 8.43-4.25 12.65-12.65 12.65h-89.78c-8.4 0-12.66-4.2-12.66-12.65v-88.7c0-8.42 4.26-12.64 12.66-12.64z" stroke="#000" stroke-opacity="0" fill-opacity="0"/><use xlink:href="#d" transform="matrix(1,0,0,1,1390,889) translate(40.778086419753095 17.955555555555552)"/><use xlink:href="#f" transform="matrix(1,0,0,1,1390,889) translate(15.247530864197557 44.888888888888886)"/><use xlink:href="#g" transform="matrix(1,0,0,1,1390,889) translate(121.17283950617283 44.888888888888886)"/><use xlink:href="#h" transform="matrix(1,0,0,1,1390,889) translate(47.63611111111112 71.82222222222221)"/><use xlink:href="#i" transform="matrix(1,0,0,1,1390,889) translate(96.2033950617284 71.82222222222221)"/><path d="M960 646a6 6 0 0 1 6-6h148a6 6 0 0 1 6 6v108a6 6 0 0 1-6 6H966a6 6 0 0 1-6-6z" stroke="#3a414a" fill="#fff"/><use xlink:href="#j" transform="matrix(1,0,0,1,972,652) translate(40.067901234567906 38.77777777777778)"/><use xlink:href="#k" transform="matrix(1,0,0,1,972,652) translate(6.364197530864196 65.44444444444446)"/><use xlink:href="#l" transform="matrix(1,0,0,1,972,652) translate(93.83333333333334 65.44444444444446)"/><path d="M600 486a6 6 0 0 1 6-6h188a6 6 0 0 1 6 6v108a6 6 0 0 1-6 6H606a6 6 0 0 1-6-6z" stroke="#3a414a" fill="#fff"/><use xlink:href="#m" transform="matrix(1,0,0,1,612,492) translate(7.222222222222221 38.77777777777778)"/><use xlink:href="#n" transform="matrix(1,0,0,1,612,492) translate(22.22222222222222 38.77777777777778)"/><use xlink:href="#o" transform="matrix(1,0,0,1,612,492) translate(77.71604938271605 38.77777777777778)"/><use xlink:href="#m" transform="matrix(1,0,0,1,612,492) translate(7.222222222222221 65.44444444444446)"/><use xlink:href="#n" transform="matrix(1,0,0,1,612,492) translate(22.22222222222222 65.44444444444446)"/><use xlink:href="#p" transform="matrix(1,0,0,1,612,492) translate(77.71604938271605 65.44444444444446)"/><path d="M801 860h73a6 6 0 0 0 6-6V706a6 6 0 0 1 6-6h57.12" stroke="#3a414a" fill="none"/><path d="M801 860.5h-.5v-1h.5z" stroke="#3a414a" stroke-width=".05" fill="#3a414a"/><path d="M957.88 700l-14.26 4.63v-9.26z" stroke="#3a414a" fill="#3a414a"/><path d="M1121 700h143.25a6 6 0 0 0 6-6v-88a6 6 0 0 1 6-6h127.37" stroke="#3a414a" fill="none"/><path d="M1121 700.5h-.5v-1h.5z" stroke="#3a414a" stroke-width=".05" fill="#3a414a"/><path d="M1418.38 600l-14.26 4.63v-9.26z" stroke="#3a414a" fill="#3a414a"/><path d="M1121 700h143.25a6 6 0 0 1 6 6v108a6 6 0 0 0 6 6h127.37" stroke="#3a414a" fill="none"/><path d="M1121 700.5h-.5v-1h.5z" stroke="#3a414a" stroke-width=".05" fill="#3a414a"/><path d="M1418.38 820l-14.26 4.63v-9.26z" stroke="#3a414a" fill="#3a414a"/><path d="M801 540h73a6 6 0 0 1 6 6v147a6 6 0 0 0 6 6h57.12" stroke="#3a414a" fill="none"/><path d="M801 540.5h-.5v-1h.5z" stroke="#3a414a" stroke-width=".05" fill="#3a414a"/><path d="M957.88 699l-14.26 4.63v-9.26z" stroke="#3a414a" fill="#3a414a"/><defs><path fill="#3a414a" d="M232-93c-1 65-40 97-104 97C67 4 28-28 28-90v-158h33c8 89-33 224 67 224 102 0 64-133 71-224h33v155" id="q"/><path fill="#3a414a" d="M33 0v-248h34V0H33" id="r"/><g id="a"><use transform="matrix(0.06172839506172839,0,0,0.06172839506172839,0,0)" xlink:href="#q"/><use transform="matrix(0.06172839506172839,0,0,0.06172839506172839,15.987654320987653,0)" xlink:href="#r"/></g><path fill="#3a414a" d="M87 75C49 33 22-17 22-94c0-76 28-126 65-167h31c-38 41-64 92-64 168S80 34 118 75H87" id="s"/><path fill="#3a414a" d="M115-194c55 1 70 41 70 98S169 2 115 4C84 4 66-9 55-30l1 105H24l-1-265h31l2 30c10-21 28-34 59-34zm-8 174c40 0 45-34 45-75s-6-73-45-74c-42 0-51 32-51 76 0 43 10 73 51 73" id="t"/><path fill="#3a414a" d="M177-190C167-65 218 103 67 71c-23-6-38-20-44-43l32-5c15 47 100 32 89-28v-30C133-14 115 1 83 1 29 1 15-40 15-95c0-56 16-97 71-98 29-1 48 16 59 35 1-10 0-23 2-32h30zM94-22c36 0 50-32 50-73 0-42-14-75-50-75-39 0-46 34-46 75s6 73 46 73" id="u"/><path fill="#3a414a" d="M59-47c-2 24 18 29 38 22v24C64 9 27 4 27-40v-127H5v-23h24l9-43h21v43h35v23H59v120" id="v"/><path fill="#3a414a" d="M114-163C36-179 61-72 57 0H25l-1-190h30c1 12-1 29 2 39 6-27 23-49 58-41v29" id="w"/><path fill="#3a414a" d="M84 4C-5 8 30-112 23-190h32v120c0 31 7 50 39 49 72-2 45-101 50-169h31l1 190h-30c-1-10 1-25-2-33-11 22-28 36-60 37" id="x"/><path fill="#3a414a" d="M117-194c89-4 53 116 60 194h-32v-121c0-31-8-49-39-48C34-167 62-67 57 0H25l-1-190h30c1 10-1 24 2 32 11-22 29-35 61-36" id="y"/><path fill="#3a414a" d="M143 0L79-87 56-68V0H24v-261h32v163l83-92h37l-77 82L181 0h-38" id="z"/><path fill="#3a414a" d="M33 0v-38h34V0H33" id="A"/><path fill="#3a414a" d="M24-231v-30h32v30H24zM24 0v-190h32V0H24" id="B"/><path fill="#3a414a" d="M100-194c62-1 85 37 85 99 1 63-27 99-86 99S16-35 15-95c0-66 28-99 85-99zM99-20c44 1 53-31 53-75 0-43-8-75-51-75s-53 32-53 75 10 74 51 75" id="C"/><path fill="#3a414a" d="M33-261c38 41 65 92 65 168S71 34 33 75H2C39 34 66-17 66-93S39-220 2-261h31" id="D"/><g id="b"><use transform="matrix(0.06172839506172839,0,0,0.06172839506172839,0,0)" xlink:href="#s"/><use transform="matrix(0.06172839506172839,0,0,0.06172839506172839,7.345679012345679,0)" xlink:href="#t"/><use transform="matrix(0.06172839506172839,0,0,0.06172839506172839,19.691358024691358,0)" xlink:href="#u"/><use transform="matrix(0.06172839506172839,0,0,0.06172839506172839,32.03703703703704,0)" xlink:href="#v"/><use transform="matrix(0.06172839506172839,0,0,0.06172839506172839,38.20987654320988,0)" xlink:href="#w"/><use transform="matrix(0.06172839506172839,0,0,0.06172839506172839,45.55555555555556,0)" xlink:href="#x"/><use transform="matrix(0.06172839506172839,0,0,0.06172839506172839,57.901234567901234,0)" xlink:href="#y"/><use transform="matrix(0.06172839506172839,0,0,0.06172839506172839,70.24691358024691,0)" xlink:href="#z"/><use transform="matrix(0.06172839506172839,0,0,0.06172839506172839,81.35802469135803,0)" xlink:href="#A"/><use transform="matrix(0.06172839506172839,0,0,0.06172839506172839,87.53086419753086,0)" xlink:href="#B"/><use transform="matrix(0.06172839506172839,0,0,0.06172839506172839,92.4074074074074,0)" xlink:href="#C"/><use transform="matrix(0.06172839506172839,0,0,0.06172839506172839,104.75308641975309,0)" xlink:href="#D"/></g><linearGradient gradientUnits="userSpaceOnUse" id="c" x1="1420" y1="660" x2="1540" y2="540"><stop offset="0%" stop-color="#1b660f"/><stop offset="100%" stop-color="#6cae3e"/></linearGradient><path d="M30 0v-248h187v28H63v79h144v27H63v87h162V0H30" id="E"/><path d="M141 0L90-78 38 0H4l68-98-65-92h35l48 74 47-74h35l-64 92 68 98h-35" id="F"/><path d="M59-47c-2 24 18 29 38 22v24C64 9 27 4 27-40v-127H5v-23h24l9-43h21v43h35v23H59v120" id="G"/><path d="M100-194c63 0 86 42 84 106H49c0 40 14 67 53 68 26 1 43-12 49-29l28 8c-11 28-37 45-77 45C44 4 14-33 15-96c1-61 26-98 85-98zm52 81c6-60-76-77-97-28-3 7-6 17-6 28h103" id="H"/><path d="M117-194c89-4 53 116 60 194h-32v-121c0-31-8-49-39-48C34-167 62-67 57 0H25l-1-190h30c1 10-1 24 2 32 11-22 29-35 61-36" id="I"/><path d="M135-143c-3-34-86-38-87 0 15 53 115 12 119 90S17 21 10-45l28-5c4 36 97 45 98 0-10-56-113-15-118-90-4-57 82-63 122-42 12 7 21 19 24 35" id="J"/><path d="M24-231v-30h32v30H24zM24 0v-190h32V0H24" id="K"/><path d="M100-194c62-1 85 37 85 99 1 63-27 99-86 99S16-35 15-95c0-66 28-99 85-99zM99-20c44 1 53-31 53-75 0-43-8-75-51-75s-53 32-53 75 10 74 51 75" id="L"/><g id="d"><use transform="matrix(0.06234567901234567,0,0,0.06234567901234567,0,0)" xlink:href="#E"/><use transform="matrix(0.06234567901234567,0,0,0.06234567901234567,14.96296296296296,0)" xlink:href="#F"/><use transform="matrix(0.06234567901234567,0,0,0.06234567901234567,26.18518518518518,0)" xlink:href="#G"/><use transform="matrix(0.06234567901234567,0,0,0.06234567901234567,32.419753086419746,0)" xlink:href="#H"/><use transform="matrix(0.06234567901234567,0,0,0.06234567901234567,44.88888888888888,0)" xlink:href="#I"/><use transform="matrix(0.06234567901234567,0,0,0.06234567901234567,57.35802469135801,0)" xlink:href="#J"/><use transform="matrix(0.06234567901234567,0,0,0.06234567901234567,68.58024691358023,0)" xlink:href="#K"/><use transform="matrix(0.06234567901234567,0,0,0.06234567901234567,73.50555555555553,0)" xlink:href="#L"/><use transform="matrix(0.06234567901234567,0,0,0.06234567901234567,85.97469135802467,0)" xlink:href="#I"/></g><path d="M141-36C126-15 110 5 73 4 37 3 15-17 15-53c-1-64 63-63 125-63 3-35-9-54-41-54-24 1-41 7-42 31l-33-3c5-37 33-52 76-52 45 0 72 20 72 64v82c-1 20 7 32 28 27v20c-31 9-61-2-59-35zM48-53c0 20 12 33 32 33 41-3 63-29 60-74-43 2-92-5-92 41" id="M"/><path d="M114-163C36-179 61-72 57 0H25l-1-190h30c1 12-1 29 2 39 6-27 23-49 58-41v29" id="N"/><path d="M101-234c-31-9-42 10-38 44h38v23H63V0H32v-167H5v-23h27c-7-52 17-82 69-68v24" id="O"/><path d="M96-169c-40 0-48 33-48 73s9 75 48 75c24 0 41-14 43-38l32 2c-6 37-31 61-74 61-59 0-76-41-82-99-10-93 101-131 147-64 4 7 5 14 7 22l-32 3c-4-21-16-35-41-35" id="P"/><g id="e"><use transform="matrix(0.06234567901234567,0,0,0.06234567901234567,0,0)" xlink:href="#M"/><use transform="matrix(0.06234567901234567,0,0,0.06234567901234567,12.469135802469133,0)" xlink:href="#N"/><use transform="matrix(0.06234567901234567,0,0,0.06234567901234567,19.888271604938268,0)" xlink:href="#G"/><use transform="matrix(0.06234567901234567,0,0,0.06234567901234567,26.122839506172834,0)" xlink:href="#K"/><use transform="matrix(0.06234567901234567,0,0,0.06234567901234567,31.048148148148144,0)" xlink:href="#O"/><use transform="matrix(0.06234567901234567,0,0,0.06234567901234567,37.282716049382714,0)" xlink:href="#M"/><use transform="matrix(0.06234567901234567,0,0,0.06234567901234567,49.751851851851846,0)" xlink:href="#P"/><use transform="matrix(0.06234567901234567,0,0,0.06234567901234567,60.97407407407407,0)" xlink:href="#G"/><use transform="matrix(0.06234567901234567,0,0,0.06234567901234567,67.20864197530864,0)" xlink:href="#J"/></g><path d="M210-169c-67 3-38 105-44 169h-31v-121c0-29-5-50-35-48C34-165 62-65 56 0H25l-1-190h30c1 10-1 24 2 32 10-44 99-50 107 0 11-21 27-35 58-36 85-2 47 119 55 194h-31v-121c0-29-5-49-35-48" id="Q"/><path d="M85-194c31 0 48 13 60 33l-1-100h32l1 261h-30c-2-10 0-23-3-31C134-8 116 4 85 4 32 4 16-35 15-94c0-66 23-100 70-100zm9 24c-40 0-46 34-46 75 0 40 6 74 45 74 42 0 51-32 51-76 0-42-9-74-50-73" id="R"/><path d="M68-38c1 34 0 65-14 84H32c9-13 17-26 17-46H33v-38h35" id="S"/><g id="f"><use transform="matrix(0.06234567901234567,0,0,0.06234567901234567,0,0)" xlink:href="#Q"/><use transform="matrix(0.06234567901234567,0,0,0.06234567901234567,18.641358024691353,0)" xlink:href="#H"/><use transform="matrix(0.06234567901234567,0,0,0.06234567901234567,31.110493827160486,0)" xlink:href="#G"/><use transform="matrix(0.06234567901234567,0,0,0.06234567901234567,37.34506172839505,0)" xlink:href="#M"/><use transform="matrix(0.06234567901234567,0,0,0.06234567901234567,49.814197530864185,0)" xlink:href="#R"/><use transform="matrix(0.06234567901234567,0,0,0.06234567901234567,62.28333333333332,0)" xlink:href="#M"/><use transform="matrix(0.06234567901234567,0,0,0.06234567901234567,74.75246913580244,0)" xlink:href="#G"/><use transform="matrix(0.06234567901234567,0,0,0.06234567901234567,80.98703703703701,0)" xlink:href="#M"/><use transform="matrix(0.06234567901234567,0,0,0.06234567901234567,93.45617283950614,0)" xlink:href="#S"/></g><path d="M84 4C-5 8 30-112 23-190h32v120c0 31 7 50 39 49 72-2 45-101 50-169h31l1 190h-30c-1-10 1-25-2-33-11 22-28 36-60 37" id="T"/><g id="g"><use transform="matrix(0.06234567901234567,0,0,0.06234567901234567,0,0)" xlink:href="#T"/><use transform="matrix(0.06234567901234567,0,0,0.06234567901234567,12.469135802469133,0)" xlink:href="#J"/><use transform="matrix(0.06234567901234567,0,0,0.06234567901234567,23.691358024691354,0)" xlink:href="#H"/><use transform="matrix(0.06234567901234567,0,0,0.06234567901234567,36.16049382716049,0)" xlink:href="#N"/></g><g id="h"><use transform="matrix(0.06234567901234567,0,0,0.06234567901234567,0,0)" xlink:href="#K"/><use transform="matrix(0.06234567901234567,0,0,0.06234567901234567,4.925308641975308,0)" xlink:href="#I"/><use transform="matrix(0.06234567901234567,0,0,0.06234567901234567,17.39444444444444,0)" xlink:href="#O"/><use transform="matrix(0.06234567901234567,0,0,0.06234567901234567,23.629012345679005,0)" xlink:href="#L"/><use transform="matrix(0.06234567901234567,0,0,0.06234567901234567,36.09814814814814,0)" xlink:href="#S"/></g><path d="M33 0v-38h34V0H33" id="U"/><g id="i"><use transform="matrix(0.06234567901234567,0,0,0.06234567901234567,0,0)" xlink:href="#H"/><use transform="matrix(0.06234567901234567,0,0,0.06234567901234567,12.469135802469133,0)" xlink:href="#G"/><use transform="matrix(0.06234567901234567,0,0,0.06234567901234567,18.7037037037037,0)" xlink:href="#P"/><use transform="matrix(0.06234567901234567,0,0,0.06234567901234567,29.925925925925917,0)" xlink:href="#U"/></g><path fill="#3a414a" d="M127-220V0H93v-220H8v-28h204v28h-85" id="V"/><g id="j"><use transform="matrix(0.06172839506172839,0,0,0.06172839506172839,0,0)" xlink:href="#V"/><use transform="matrix(0.06172839506172839,0,0,0.06172839506172839,12.716049382716047,0)" xlink:href="#w"/><use transform="matrix(0.06172839506172839,0,0,0.06172839506172839,20.061728395061728,0)" xlink:href="#x"/><use transform="matrix(0.06172839506172839,0,0,0.06172839506172839,32.407407407407405,0)" xlink:href="#y"/><use transform="matrix(0.06172839506172839,0,0,0.06172839506172839,44.75308641975308,0)" xlink:href="#z"/></g><path fill="#3a414a" d="M233-177c-1 41-23 64-60 70L243 0h-38l-65-103H63V0H30v-248c88 3 205-21 203 71zM63-129c60-2 137 13 137-47 0-61-80-42-137-45v92" id="W"/><path fill="#3a414a" d="M100-194c63 0 86 42 84 106H49c0 40 14 67 53 68 26 1 43-12 49-29l28 8c-11 28-37 45-77 45C44 4 14-33 15-96c1-61 26-98 85-98zm52 81c6-60-76-77-97-28-3 7-6 17-6 28h103" id="X"/><path fill="#3a414a" d="M135-143c-3-34-86-38-87 0 15 53 115 12 119 90S17 21 10-45l28-5c4 36 97 45 98 0-10-56-113-15-118-90-4-57 82-63 122-42 12 7 21 19 24 35" id="Y"/><path fill="#3a414a" d="M179-190L93 31C79 59 56 82 12 73V49c39 6 53-20 64-50L1-190h34L92-34l54-156h33" id="Z"/><g id="k"><use transform="matrix(0.06172839506172839,0,0,0.06172839506172839,0,0)" xlink:href="#W"/><use transform="matrix(0.06172839506172839,0,0,0.06172839506172839,15.987654320987653,0)" xlink:href="#X"/><use transform="matrix(0.06172839506172839,0,0,0.06172839506172839,28.333333333333332,0)" xlink:href="#u"/><use transform="matrix(0.06172839506172839,0,0,0.06172839506172839,40.67901234567901,0)" xlink:href="#B"/><use transform="matrix(0.06172839506172839,0,0,0.06172839506172839,45.55555555555556,0)" xlink:href="#Y"/><use transform="matrix(0.06172839506172839,0,0,0.06172839506172839,56.66666666666667,0)" xlink:href="#v"/><use transform="matrix(0.06172839506172839,0,0,0.06172839506172839,62.83950617283951,0)" xlink:href="#w"/><use transform="matrix(0.06172839506172839,0,0,0.06172839506172839,70.18518518518519,0)" xlink:href="#Z"/></g><path fill="#3a414a" d="M205 0l-28-72H64L36 0H1l101-248h38L239 0h-34zm-38-99l-47-123c-12 45-31 82-46 123h93" id="aa"/><path fill="#3a414a" d="M30-248c87 1 191-15 191 75 0 78-77 80-158 76V0H30v-248zm33 125c57 0 124 11 124-50 0-59-68-47-124-48v98" id="ab"/><g id="l"><use transform="matrix(0.06172839506172839,0,0,0.06172839506172839,0,0)" xlink:href="#aa"/><use transform="matrix(0.06172839506172839,0,0,0.06172839506172839,14.814814814814813,0)" xlink:href="#ab"/><use transform="matrix(0.06172839506172839,0,0,0.06172839506172839,29.629629629629626,0)" xlink:href="#r"/></g><path fill="#3a414a" d="M62-168c30 0 50 19 50 48S92-70 62-70c-29 0-48-21-48-50s20-48 48-48" id="ac"/><use transform="matrix(0.06172839506172839,0,0,0.06172839506172839,0,0)" xlink:href="#ac" id="m"/><g id="n"><use transform="matrix(0.06172839506172839,0,0,0.06172839506172839,0,0)" xlink:href="#v"/><use transform="matrix(0.06172839506172839,0,0,0.06172839506172839,6.172839506172839,0)" xlink:href="#w"/><use transform="matrix(0.06172839506172839,0,0,0.06172839506172839,13.518518518518519,0)" xlink:href="#x"/><use transform="matrix(0.06172839506172839,0,0,0.06172839506172839,25.864197530864196,0)" xlink:href="#y"/><use transform="matrix(0.06172839506172839,0,0,0.06172839506172839,38.20987654320987,0)" xlink:href="#z"/></g><path fill="#3a414a" d="M115-194c53 0 69 39 70 98 0 66-23 100-70 100C84 3 66-7 56-30L54 0H23l1-261h32v101c10-23 28-34 59-34zm-8 174c40 0 45-34 45-75 0-40-5-75-45-74-42 0-51 32-51 76 0 43 10 73 51 73" id="ad"/><path fill="#3a414a" d="M24 0v-261h32V0H24" id="ae"/><path fill="#3a414a" d="M106-169C34-169 62-67 57 0H25v-261h32l-1 103c12-21 28-36 61-36 89 0 53 116 60 194h-32v-121c2-32-8-49-39-48" id="af"/><g id="o"><use transform="matrix(0.06172839506172839,0,0,0.06172839506172839,0,0)" xlink:href="#t"/><use transform="matrix(0.06172839506172839,0,0,0.06172839506172839,12.345679012345679,0)" xlink:href="#x"/><use transform="matrix(0.06172839506172839,0,0,0.06172839506172839,24.691358024691358,0)" xlink:href="#ad"/><use transform="matrix(0.06172839506172839,0,0,0.06172839506172839,37.03703703703704,0)" xlink:href="#ae"/><use transform="matrix(0.06172839506172839,0,0,0.06172839506172839,41.91358024691358,0)" xlink:href="#B"/><use transform="matrix(0.06172839506172839,0,0,0.06172839506172839,46.79012345679013,0)" xlink:href="#Y"/><use transform="matrix(0.06172839506172839,0,0,0.06172839506172839,57.90123456790124,0)" xlink:href="#af"/></g><path fill="#3a414a" d="M141-36C126-15 110 5 73 4 37 3 15-17 15-53c-1-64 63-63 125-63 3-35-9-54-41-54-24 1-41 7-42 31l-33-3c5-37 33-52 76-52 45 0 72 20 72 64v82c-1 20 7 32 28 27v20c-31 9-61-2-59-35zM48-53c0 20 12 33 32 33 41-3 63-29 60-74-43 2-92-5-92 41" id="ag"/><g id="p"><use transform="matrix(0.06172839506172839,0,0,0.06172839506172839,0,0)" xlink:href="#B"/><use transform="matrix(0.06172839506172839,0,0,0.06172839506172839,4.876543209876543,0)" xlink:href="#y"/><use transform="matrix(0.06172839506172839,0,0,0.06172839506172839,17.22222222222222,0)" xlink:href="#Y"/><use transform="matrix(0.06172839506172839,0,0,0.06172839506172839,28.333333333333332,0)" xlink:href="#v"/><use transform="matrix(0.06172839506172839,0,0,0.06172839506172839,34.50617283950617,0)" xlink:href="#ag"/><use transform="matrix(0.06172839506172839,0,0,0.06172839506172839,46.85185185185185,0)" xlink:href="#ae"/><use transform="matrix(0.06172839506172839,0,0,0.06172839506172839,51.72839506172839,0)" xlink:href="#ae"/></g></defs></g></svg>