<?xml version="1.0" encoding="UTF-8" standalone="no"?>
<!-- Created with Inkscape (http://www.inkscape.org/) -->

<svg
   version="1.1"
   id="svg48"
   width="511.86191"
   height="473.82361"
   viewBox="0 0 511.86191 473.82361"
   xmlns="http://www.w3.org/2000/svg"
   xmlns:svg="http://www.w3.org/2000/svg">
  <defs
     id="defs52" />
  <g
     id="g54"
     transform="translate(3.3882637,-26.155943)">
    <path
       style="fill:#ffffff"
       d="m 8.4457233,497.22956 c -3.5519,-1.80112 -6.4604,-4.2461 -8.42931002,-7.08595 l -3.00618998,-4.33595 -0.27779,-124.66405 c -0.30402,-136.43907 -0.49812,-131.30076 5.50267,-145.66405 5.35062,-12.80703 16.5960397,-26.80859 27.6270017,-34.39809 7.02813,-4.83548 18.21493,-9.83228 27.05808,-12.08601 7.64493,-1.94835 10.95367,-2.0159 98.750005,-2.0159 89.50671,0 90.8694,0.0294 92.84004,2 2.76372,2.76372 2.70749,9.04937 -0.10372,11.59501 -1.97972,1.7927 -4.60313,1.93446 -44.50544,2.40499 l -42.40171,0.5 6.54991,6.4635 c 9.81116,9.68172 16.01625,19.81247 20.54115,33.5365 2.15737,6.54332 2.333,8.94088 2.69209,36.75 l 0.38416,29.75 h 42.23372 42.23372 l 2.212,-2.99189 c 1.2166,-1.64554 4.11373,-4.00464 6.43806,-5.24245 4.03135,-2.14687 5.47892,-2.26625 31.41799,-2.59106 33.0233,-0.41353 36.47222,0.1 43.05901,6.41125 l 4.60686,4.41415 h 46.94558 46.94557 l -0.53248,-26.75 c -0.59916,-30.09918 -1.1834,-33.52822 -7.92575,-46.5176 -7.01006,-13.50514 -19.72697,-24.45479 -35.54917,-30.60893 l -6.74155,-2.62218 -66.14601,-0.50064 c -63.2597,-0.4788 -66.23782,-0.58378 -68.25,-2.40564 -2.81149,-2.54557 -2.86786,-8.83114 -0.10399,-11.59501 1.96781,-1.96781 3.33333,-2 84.84004,-2 94.11783,0 89.97738,-0.32469 107.65996,8.44247 21.63424,10.72643 36.43103,29.60952 41.96767,53.55753 1.29404,5.59718 1.50177,23.65367 1.49559,130 -0.007,117.83081 -0.0917,123.68618 -1.84939,127.55581 -2.26808,4.99343 -8.79666,10.73297 -13.97231,12.28363 -2.89249,0.86661 -64.01646,1.16056 -241.32826,1.16056 H 13.868853 Z m 131.0645067,-102.25 v -89 H 75.488795 11.467363 l 0.27143,87.08861 0.27143,87.08861 2.36078,1.91139 c 2.267,1.83546 4.79949,1.91139 63.750002,1.91139 h 61.389225 z m 350.69424,86.58686 2.80576,-2.41315 0.27154,-86.58685 0.27155,-86.58686 h -64.02155 -64.02154 v 10 10 h 46.78811 c 46.53469,0 46.81223,0.0122 51.24193,2.25 8.93376,4.5132 10.40439,10.05959 9.81373,37.01175 -0.31596,14.41746 -0.51587,15.85819 -2.47155,17.81224 -2.66068,2.65847 -8.6892,2.85411 -11.43298,0.37102 -1.78414,-1.61462 -1.93924,-3.21572 -1.93924,-20.01821 0,-10.04477 -0.27314,-18.97503 -0.60699,-19.84501 -0.54116,-1.41024 -5.53,-1.58179 -46,-1.58179 h -45.39301 v 6.88581 c 0,10.02374 -3.53473,16.60092 -10.94419,20.36419 l -5.41444,2.75 h -29.3528 c -32.36966,0 -33.8186,-0.22687 -40.06597,-6.27341 -3.84594,-3.7223 -6.2226,-10.75738 -6.2226,-18.41931 v -5.32971 l -40.75,0.26121 -40.75,0.26122 v 52.5 52.5 l 131.93869,0.25371 c 104.89061,0.20169 132.10188,-0.003 132.73469,-1 0.4378,-0.68954 0.80289,-9.46621 0.81131,-19.50371 0.0142,-16.90533 0.16267,-18.39736 2.01531,-20.25 2.564,-2.564 8.02701,-2.60802 11.13922,-0.0897 2.27091,1.83754 2.37387,2.51177 2.70455,17.71224 0.58919,27.08319 -0.87173,32.61015 -9.81373,37.12751 l -4.45382,2.25 -134.53811,-0.022 c -128.80435,-0.021 -134.71193,-0.10091 -138.61671,-1.87437 -4.87012,-2.2119 -8.03973,-5.97255 -9.4509,-11.21322 -0.67224,-2.49652 -0.9369,-22.91333 -0.75339,-58.11945 0.31585,-60.59425 -0.0157,-57.77105 7.4529,-63.46931 l 3.67211,-2.8017 43.32894,-0.28055 43.32894,-0.28054 v -9.96946 -9.96945 h -59 -59 v 89 89 H 321.45447 487.3987 Z M 347.9388,354.40813 c 1.35203,-1.35202 1.57143,-5.39311 1.57143,-28.94329 0,-27.1517 -0.0179,-27.38439 -2.22251,-28.92858 -1.872,-1.3112 -6.28782,-1.5567 -28,-1.5567 -24.44416,0 -25.88094,0.10345 -27.77749,2 -1.89852,1.89852 -2,3.33333 -2,28.27749 0,22.16472 0.24364,26.62535 1.5567,28.5 1.54299,2.20292 1.79357,2.22251 28.42858,2.22251 23.09563,0 27.09269,-0.22083 28.44329,-1.57143 z m -34.35599,-6.06343 c -1.13992,-1.44917 -2.07543,-4.03667 -2.0789,-5.75 -0.005,-2.3729 -0.68302,-3.50002 -2.84639,-4.73047 -1.56204,-0.88843 -4.14152,-3.32162 -5.73218,-5.40708 -2.45543,-3.21924 -2.93739,-4.8627 -3.19198,-10.88467 -0.25059,-5.92714 0.0776,-7.74351 1.99698,-11.05133 6.61677,-11.40334 22.0048,-13.75383 31.84456,-4.8642 6.32426,5.71359 8.40356,16.28549 4.68547,23.82261 -1.46622,2.97225 -7.96174,9.5 -9.45309,9.5 -0.83671,0 -1.29705,1.35779 -1.29705,3.82569 0,4.99043 -3.21019,8.17431 -8.24187,8.17431 -2.71208,0 -4.12977,-0.657 -5.68555,-2.63486 z m 9.40423,-25.33952 c 1.6732,-1.84886 1.68158,-2.13494 0.13194,-4.5 -2.66007,-4.05977 -7.60875,-2.77565 -7.60875,1.97438 0,4.4467 4.39478,5.93123 7.47681,2.52562 z M 139.30112,261.22956 c -0.33908,-28.14088 -0.4014,-28.89283 -2.94147,-35.49155 -7.28667,-18.92965 -20.96583,-32.57987 -39.607875,-39.52405 -9.06288,-3.37594 -25.76271,-4.2368 -35.26058,-1.81766 -18.7595,4.77812 -34.16052,17.07526 -42.764952,34.14621 -5.66428,11.23776 -6.32335,15.48942 -6.92722,44.68705 l -0.55325,26.75 h 64.200882 64.200885 z m -107.176015,11.6617 c -4.74683,-3.73385 -5.61618,-6.77838 -5.6001,-19.61204 0.0253,-20.18982 4.1139,-31.30497 15.55731,-42.29349 24.15946,-23.19911 63.338345,-16.01685 77.979405,14.29515 4.14678,8.58526 5.72327,17.86402 5.28944,31.13207 -0.28399,8.68504 -0.69109,10.89758 -2.43733,13.24658 -3.93883,5.29843 -3.85831,5.28944 -47.518745,5.30529 -39.68475,0.0144 -40.67596,-0.0331 -43.26998,-2.07356 z m 77.180255,-23.71921 c -0.77626,-16.12048 -6.83987,-26.1366 -19.634345,-32.43281 -5.75676,-2.83292 -7.60831,-3.25186 -14.14239,-3.19993 -9.52533,0.0757 -16.74486,3.30224 -23.46552,10.48716 -6.86507,7.33932 -8.79593,12.44016 -9.35105,24.70309 l -0.464,10.25 h 33.76478 33.764785 z m 65.97918,12.55751 c -0.33318,-25.79526 -0.55416,-28.81481 -2.54312,-34.75 -6.276,-18.72797 -21.34586,-34.04285 -39.98964,-40.63981 l -6.74155,-2.38545 4.145,3.76263 c 9.82023,8.91434 17.74186,21.54266 22.43357,35.76263 2.15952,6.54525 2.33452,8.93271 2.69371,36.75 l 0.38416,29.75 h 9.99137 9.99138 z m 317.96312,2.5 c -0.59589,-28.11769 -1.3142,-33.15188 -6.27516,-43.97846 -7.49411,-16.35481 -20.84156,-28.38115 -38.08205,-34.31275 l -5.216,-1.79457 5.97502,5.97502 c 10.38035,10.38035 17.32664,22.73735 21.00176,37.36076 1.67266,6.65559 2.10498,12.57941 2.57257,35.25 l 0.56205,27.25 h 10.00376 10.00376 z M 215.01023,149.44092 c -2.2,-0.75423 -4.58364,-2.17908 -5.29699,-3.16634 -0.71334,-0.98726 -3.0676,-4.33642 -5.23168,-7.44258 -2.62353,-3.76562 -6.22185,-7.15435 -10.79827,-10.16931 -7.90653,-5.20885 -9.70009,-8.31497 -8.90001,-15.41325 0.56381,-5.00213 1.91297,-6.57105 11.71721,-13.625773 2.46965,-1.77706 5.84465,-5.17628 7.5,-7.553841 1.65536,-2.37755 4.6443,-6.0705 6.64209,-8.206545 3.21553,-3.438059 4.16794,-3.883729 8.29966,-3.883729 6.62879,0 9.60692,1.944549 14.45191,9.436254 2.91762,4.511461 6.00328,7.750711 9.83028,10.319601 8.14025,5.464183 11.01791,8.699033 11.78676,13.249823 0.95145,5.63158 -1.75535,10.68293 -7.853,14.655 -6.68083,4.35196 -10.32227,7.93726 -14.30485,14.08431 -5.2085,8.03924 -10.37905,10.27528 -17.84311,7.71638 z m 13.62585,-28.06024 c 1.85578,-1.70438 4.37138,-3.76105 5.59022,-4.57038 2.20069,-1.4613 2.18136,-1.49799 -2.7834,-5.28417 -2.74972,-2.09695 -6.38203,-5.73781 -8.0718,-8.09078 l -3.07233,-4.278143 -7.85469,7.950283 c -4.32008,4.37265 -7.89633,8.18889 -7.94723,8.48054 -0.0509,0.29164 1.84379,2.01846 4.21042,3.83738 2.36663,1.81892 5.83144,5.36414 7.69958,7.87828 l 3.39662,4.57114 2.72923,-3.69763 c 1.50107,-2.0337 4.24759,-5.09213 6.10338,-6.79652 z m 105.50901,25.5263 c -2.13765,-1.68147 -2.63486,-2.90806 -2.63486,-6.5 v -4.42742 h -4.04545 c -7.92691,0 -11.85651,-8.18895 -6.5,-13.54545 1.79707,-1.79708 3.53815,-2.45455 6.5,-2.45455 h 4.04545 v -4.42742 c 0,-3.59194 0.49721,-4.81853 2.63486,-6.5 6.05306,-4.76134 13.36514,-0.3985 13.36514,7.97447 0,2.75409 0.25667,2.95295 3.81144,2.95295 6.77423,0 10.77477,6.03193 7.80692,11.77111 -1.76046,3.40435 -3.3593,4.22889 -8.20015,4.22889 -3.11924,0 -3.41821,0.25828 -3.41821,2.95295 0,8.37297 -7.31208,12.73581 -13.36514,7.97447 z M 281.79145,79.87905 c -1.77033,-0.517276 -4.02033,-2.093486 -5,-3.502688 -3.84021,-5.523933 -7.8615,-9.738035 -11.46042,-12.009935 -8.0306,-5.069493 -9.07775,-14.402736 -2.23123,-19.886875 4.77386,-3.823914 10.08652,-9.136569 13.91043,-13.910428 2.34238,-2.924284 3.89595,-3.861882 7.08725,-4.277259 5.5107,-0.717268 9.18564,1.348139 13.40793,7.535602 1.8836,2.760273 5.41052,6.273889 7.83761,7.808035 5.50421,3.479179 7.39641,6.307877 7.52602,11.250837 0.13925,5.310746 -1.86282,8.566449 -7.4874,12.175727 -2.63109,1.688366 -6.14484,5.124554 -7.80833,7.635973 -1.6635,2.51142 -3.82071,5.119661 -4.79381,5.796091 -2.65585,1.846164 -7.3742,2.440858 -10.98805,1.38492 z m 7.71878,-30.078657 -3.5,-3.679159 -3.75244,3.634493 -3.75245,3.634494 3.55389,3.639507 3.55388,3.639507 3.69856,-3.594842 3.69856,-3.594841 z"
       id="path216" />
  </g>
</svg>
